<svg width="109" height="24" viewBox="0 0 109 24" fill="none" xmlns="http://www.w3.org/2000/svg">
<g filter="url(#filter0_d_26_211)">
<rect width="107.027" height="24" fill="white"/>
<g clip-path="url(#clip0_26_211)" filter="url(#filter1_d_26_211)">
<path d="M14.5961 17.9603C15.1352 17.4219 16.008 17.4233 16.5455 17.9634C17.0829 18.5036 17.0815 19.3779 16.5423 19.9162L14.1481 22.3069C11.9393 24.5126 8.3374 24.5446 6.0913 22.3812C6.07832 22.3688 5.07818 21.3881 1.77881 18.1529C-0.416171 16.0006 -0.634845 12.5567 1.4307 10.3452L5.28188 6.22152C7.33189 4.02634 11.1108 3.78642 13.4547 5.68192L16.9525 8.5107C17.5448 8.98975 17.6374 9.85913 17.1591 10.4525C16.6809 11.0459 15.8131 11.1386 15.2207 10.6595L11.723 7.83076C10.4971 6.83945 8.35284 6.97559 7.2951 8.10824L3.44387 12.2319C2.43831 13.3086 2.54844 15.043 3.70727 16.1793C6.13006 18.555 7.99728 20.3859 7.99944 20.3879C9.16717 21.5126 11.0553 21.4959 12.2019 20.351L14.5961 17.9603Z" fill="#FFA116"/>
<path fill-rule="evenodd" clip-rule="evenodd" d="M8.7799 15.5678C8.01861 15.5678 7.40146 14.9496 7.40146 14.187C7.40146 13.4244 8.01861 12.8062 8.7799 12.8062H18.9459C19.7072 12.8062 20.3243 13.4244 20.3243 14.187C20.3243 14.9496 19.7072 15.5678 18.9459 15.5678H8.7799Z" fill="#B3B3B3"/>
<path fill-rule="evenodd" clip-rule="evenodd" d="M10.6839 0.437481C11.204 -0.119421 12.0763 -0.148518 12.6322 0.372491C13.1881 0.8935 13.2172 1.76732 12.6971 2.32422L3.44404 12.232C2.43844 13.3085 2.54858 15.043 3.70732 16.1793L7.98051 20.3695C8.52454 20.903 8.53385 21.7773 8.00131 22.3222C7.46877 22.8672 6.59604 22.8765 6.05202 22.3431L1.77881 18.1528C-0.416051 16.0005 -0.634723 12.5566 1.43091 10.3451L10.6839 0.437481Z" fill="black"/>
<path fill-rule="evenodd" clip-rule="evenodd" d="M28.522 8.40707V17.4949C28.522 17.844 28.6458 18.1424 28.8936 18.3902C29.1413 18.6379 29.4398 18.7618 29.7889 18.7618H32.2466C32.4606 18.7618 32.6436 18.8378 32.7956 18.9898C32.9476 19.1419 33.0237 19.3249 33.0237 19.5388V19.5557C33.0237 19.7697 32.9476 19.9499 32.7956 20.0963C32.6436 20.2483 32.4606 20.3243 32.2466 20.3243H29.7889C29.0062 20.3243 28.339 20.0484 27.7872 19.4966C27.2354 18.9448 26.9595 18.2776 26.9595 17.4949V8.40707C26.9595 8.1931 27.0355 8.01011 27.1875 7.85808C27.3395 7.71169 27.5197 7.63849 27.7281 7.63849H27.7534C27.9617 7.63849 28.1419 7.71169 28.2939 7.85808C28.446 8.01011 28.522 8.1931 28.522 8.40707ZM38.3108 12.6807C37.4662 12.6807 36.7455 12.9791 36.1487 13.576C35.5574 14.1728 35.2618 14.8936 35.2618 15.7382C35.2618 15.8902 35.2731 16.0394 35.2956 16.1858L40.6419 13.7702C40.0338 13.0439 39.2568 12.6807 38.3108 12.6807ZM42.5 13.7956C42.5901 13.987 42.5985 14.1841 42.5253 14.3868C42.4521 14.5839 42.317 14.7275 42.1199 14.8175C41.3317 15.1723 40.2956 15.6396 39.0118 16.2196C37.4184 16.9403 36.3851 17.4076 35.9122 17.6216C36.5203 18.3986 37.3198 18.7871 38.3108 18.7871C38.9696 18.7871 39.5664 18.5929 40.1014 18.2044C40.6194 17.8271 40.9826 17.3373 41.1909 16.7348C41.3148 16.3857 41.5625 16.2111 41.9341 16.2111C42.1988 16.2111 42.4099 16.3209 42.5676 16.5405C42.7196 16.7545 42.7506 16.9881 42.6605 17.2415C42.3452 18.1537 41.7934 18.8913 41.0051 19.4544C40.1999 20.0343 39.3018 20.3243 38.3108 20.3243C37.0383 20.3243 35.9516 19.8739 35.0507 18.9729C34.1498 18.072 33.6993 16.9853 33.6993 15.7128C33.6993 14.4403 34.1498 13.3536 35.0507 12.4527C35.9516 11.5518 37.0383 11.1013 38.3108 11.1013C39.2286 11.1013 40.0676 11.3519 40.8277 11.853C41.5766 12.3429 42.134 12.9904 42.5 13.7956ZM48.5895 12.6807C47.7449 12.6807 47.0242 12.9791 46.4274 13.576C45.8362 14.1728 45.5406 14.8936 45.5406 15.7382C45.5406 15.8902 45.5518 16.0394 45.5743 16.1858L50.9206 13.7702C50.3125 13.0439 49.5355 12.6807 48.5895 12.6807ZM52.7787 13.7956C52.8688 13.987 52.8773 14.1841 52.8041 14.3868C52.7309 14.5839 52.5957 14.7275 52.3987 14.8175C51.6104 15.1723 50.5743 15.6396 49.2905 16.2196C47.6971 16.9403 46.6639 17.4076 46.1909 17.6216C46.799 18.3986 47.5985 18.7871 48.5895 18.7871C49.2483 18.7871 49.8452 18.5929 50.3801 18.2044C50.8981 17.8271 51.2613 17.3373 51.4696 16.7348C51.5935 16.3857 51.8412 16.2111 52.2128 16.2111C52.4775 16.2111 52.6886 16.3209 52.8463 16.5405C52.9983 16.7545 53.0293 16.9881 52.9392 17.2415C52.6239 18.1537 52.0721 18.8913 51.2838 19.4544C50.4786 20.0343 49.5805 20.3243 48.5895 20.3243C47.317 20.3243 46.2303 19.8739 45.3294 18.9729C44.4285 18.072 43.9781 16.9853 43.9781 15.7128C43.9781 14.4403 44.4285 13.3536 45.3294 12.4527C46.2303 11.5518 47.317 11.1013 48.5895 11.1013C49.5073 11.1013 50.3463 11.3519 51.1064 11.853C51.8553 12.3429 52.4127 12.9904 52.7787 13.7956ZM55.3041 7.63849C55.5124 7.63849 55.6926 7.71169 55.8446 7.85808C55.9966 8.01011 56.0726 8.1931 56.0726 8.40707V11.1013H57.5929C57.8012 11.1013 57.9814 11.1773 58.1335 11.3294C58.2855 11.4814 58.3615 11.6644 58.3615 11.8784V11.8952C58.3615 12.1092 58.2855 12.2894 58.1335 12.4358C57.9814 12.5878 57.8012 12.6638 57.5929 12.6638H56.0726V17.9257C56.0726 18.1565 56.1543 18.3536 56.3176 18.5169C56.4809 18.6802 56.6807 18.7618 56.9172 18.7618H57.5929C57.8012 18.7618 57.9814 18.8378 58.1335 18.9898C58.2855 19.1419 58.3615 19.3249 58.3615 19.5388V19.5557C58.3615 19.7697 58.2855 19.9499 58.1335 20.0963C57.9814 20.2483 57.8012 20.3243 57.5929 20.3243H56.9172C56.2528 20.3243 55.6841 20.0906 55.2112 19.6233C54.7438 19.1503 54.5101 18.5844 54.5101 17.9257V8.40707C54.5101 8.1931 54.5862 8.01011 54.7382 7.85808C54.8902 7.71169 55.0704 7.63849 55.2787 7.63849H55.3041ZM65.6757 7.63849C66.2106 7.63849 66.7371 7.70324 67.2551 7.83275C67.6436 7.9341 67.8378 8.18184 67.8378 8.57599V8.60133C67.8378 8.84908 67.7365 9.05178 67.5338 9.20943C67.3367 9.36146 67.1171 9.40651 66.875 9.34457C66.4809 9.24322 66.0811 9.19254 65.6757 9.19254C64.3581 9.19254 63.232 9.65988 62.2973 10.5946C61.3626 11.5293 60.8953 12.6582 60.8953 13.9814C60.8953 15.3046 61.3626 16.4335 62.2973 17.3682C63.232 18.2973 64.3581 18.7618 65.6757 18.7618C66.0811 18.7618 66.4809 18.7139 66.875 18.6182C67.1171 18.5563 67.3367 18.6013 67.5338 18.7534C67.7365 18.9054 67.8378 19.1081 67.8378 19.3615V19.3784C67.8378 19.7781 67.6436 20.0287 67.2551 20.13C66.7371 20.2595 66.2106 20.3243 65.6757 20.3243C63.9245 20.3243 62.4296 19.7049 61.1909 18.4662C59.9521 17.2274 59.3328 15.7325 59.3328 13.9814C59.3328 12.2303 59.9521 10.7353 61.1909 9.4966C62.4296 8.25785 63.9245 7.63849 65.6757 7.63849ZM73.5473 12.6807C72.7027 12.6807 71.982 12.9791 71.3851 13.576C70.7939 14.1728 70.4983 14.8936 70.4983 15.7382C70.4983 16.5771 70.7939 17.295 71.3851 17.8919C71.982 18.4887 72.7027 18.7871 73.5473 18.7871C74.3919 18.7871 75.1098 18.4887 75.701 17.8919C76.2979 17.295 76.5963 16.5771 76.5963 15.7382C76.5963 14.8936 76.2979 14.1728 75.701 13.576C75.1098 12.9791 74.3919 12.6807 73.5473 12.6807ZM73.5473 11.1013C74.8198 11.1013 75.9065 11.5518 76.8074 12.4527C77.7083 13.3536 78.1588 14.4403 78.1588 15.7128C78.1588 16.9853 77.7083 18.072 76.8074 18.9729C75.9065 19.8739 74.8198 20.3243 73.5473 20.3243C72.2748 20.3243 71.1881 19.8739 70.2872 18.9729C69.3863 18.072 68.9358 16.9853 68.9358 15.7128C68.9358 14.4403 69.3863 13.3536 70.2872 12.4527C71.1881 11.5518 72.2748 11.1013 73.5473 11.1013ZM83.9527 12.6807C83.1081 12.6807 82.3874 12.9791 81.7905 13.576C81.1993 14.1728 80.9037 14.8936 80.9037 15.7382C80.9037 16.5771 81.1993 17.295 81.7905 17.8919C82.3874 18.4887 83.1081 18.7871 83.9527 18.7871C84.7973 18.7871 85.5152 18.4887 86.1064 17.8919C86.7033 17.295 87.0017 16.5771 87.0017 15.7382C87.0017 14.8936 86.7033 14.1728 86.1064 13.576C85.5152 12.9791 84.7973 12.6807 83.9527 12.6807ZM87.7956 7.63849C88.0039 7.63849 88.1841 7.71169 88.3362 7.85808C88.4882 8.01011 88.5642 8.1931 88.5642 8.40707V15.7382C88.5586 17.005 88.1053 18.0861 87.2044 18.9814C86.3035 19.8767 85.2196 20.3243 83.9527 20.3243C82.6802 20.3243 81.5935 19.8739 80.6926 18.9729C79.7917 18.072 79.3412 16.9853 79.3412 15.7128C79.3412 14.4403 79.7917 13.3536 80.6926 12.4527C81.5935 11.5518 82.6802 11.1013 83.9527 11.1013C85.1126 11.1013 86.1289 11.487 87.0017 12.2584V8.40707C87.0017 8.1931 87.0777 8.01011 87.2297 7.85808C87.3818 7.71169 87.5619 7.63849 87.7703 7.63849H87.7956ZM94.6115 12.6807C93.7669 12.6807 93.0462 12.9791 92.4493 13.576C91.8581 14.1728 91.5625 14.8936 91.5625 15.7382C91.5625 15.8902 91.5738 16.0394 91.5963 16.1858L96.9426 13.7702C96.3345 13.0439 95.5574 12.6807 94.6115 12.6807ZM98.8007 13.7956C98.8908 13.987 98.8992 14.1841 98.826 14.3868C98.7528 14.5839 98.6177 14.7275 98.4206 14.8175C97.6323 15.1723 96.5963 15.6396 95.3125 16.2196C93.719 16.9403 92.6858 17.4076 92.2128 17.6216C92.821 18.3986 93.6205 18.7871 94.6115 18.7871C95.2703 18.7871 95.8671 18.5929 96.402 18.2044C96.92 17.8271 97.2832 17.3373 97.4916 16.7348C97.6154 16.3857 97.8632 16.2111 98.2348 16.2111C98.4994 16.2111 98.7106 16.3209 98.8682 16.5405C99.0203 16.7545 99.0512 16.9881 98.9611 17.2415C98.6458 18.1537 98.094 18.8913 97.3057 19.4544C96.5006 20.0343 95.6025 20.3243 94.6115 20.3243C93.339 20.3243 92.2523 19.8739 91.3514 18.9729C90.4504 18.072 90 16.9853 90 15.7128C90 14.4403 90.4504 13.3536 91.3514 12.4527C92.2523 11.5518 93.339 11.1013 94.6115 11.1013C95.5293 11.1013 96.3682 11.3519 97.1284 11.853C97.8773 12.3429 98.4347 12.9904 98.8007 13.7956Z" fill="black"/>
</g>
</g>
<defs>
<filter id="filter0_d_26_211" x="0" y="0" width="108.027" height="24" filterUnits="userSpaceOnUse" color-interpolation-filters="sRGB">
<feFlood flood-opacity="0" result="BackgroundImageFix"/>
<feColorMatrix in="SourceAlpha" type="matrix" values="0 0 0 0 0 0 0 0 0 0 0 0 0 0 0 0 0 0 127 0" result="hardAlpha"/>
<feOffset dx="1"/>
<feComposite in2="hardAlpha" operator="out"/>
<feColorMatrix type="matrix" values="0 0 0 0 0 0 0 0 0 0 0 0 0 0 0 0 0 0 0.16 0"/>
<feBlend mode="normal" in2="BackgroundImageFix" result="effect1_dropShadow_26_211"/>
<feBlend mode="normal" in="SourceGraphic" in2="effect1_dropShadow_26_211" result="shape"/>
</filter>
<filter id="filter1_d_26_211" x="0" y="0" width="100.027" height="24" filterUnits="userSpaceOnUse" color-interpolation-filters="sRGB">
<feFlood flood-opacity="0" result="BackgroundImageFix"/>
<feColorMatrix in="SourceAlpha" type="matrix" values="0 0 0 0 0 0 0 0 0 0 0 0 0 0 0 0 0 0 127 0" result="hardAlpha"/>
<feOffset dx="1"/>
<feComposite in2="hardAlpha" operator="out"/>
<feColorMatrix type="matrix" values="0 0 0 0 0 0 0 0 0 0 0 0 0 0 0 0 0 0 0.25 0"/>
<feBlend mode="normal" in2="BackgroundImageFix" result="effect1_dropShadow_26_211"/>
<feBlend mode="normal" in="SourceGraphic" in2="effect1_dropShadow_26_211" result="shape"/>
</filter>
<clipPath id="clip0_26_211">
<rect width="99.027" height="24" fill="white"/>
</clipPath>
</defs>
</svg>
