<svg width="201" height="40" viewBox="0 0 201 40" fill="none" xmlns="http://www.w3.org/2000/svg">
<path d="M201 0H0V40H201V0Z" fill="#990CC0"/>
<path d="M21.9102 19.4727C21.9102 21.4023 21.5508 23.0156 20.832 24.3125C20.1133 25.6016 19.0703 26.5742 17.7031 27.2305C16.3359 27.8789 14.6875 28.2031 12.7578 28.2031H8V11.0703H13.2734C15.0469 11.0703 16.5781 11.3906 17.8672 12.0312C19.1562 12.6641 20.1523 13.6055 20.8555 14.8555C21.5586 16.0977 21.9102 17.6367 21.9102 19.4727ZM18.9805 19.5547C18.9805 18.1484 18.7578 16.9922 18.3125 16.0859C17.875 15.1797 17.2266 14.5078 16.3672 14.0703C15.5156 13.625 14.4648 13.4023 13.2148 13.4023H10.8125V25.8477H12.8047C14.875 25.8477 16.4219 25.3203 17.4453 24.2656C18.4688 23.2109 18.9805 21.6406 18.9805 19.5547Z" fill="white"/>
<path d="M36.2188 28.2031L34.543 23.4453H27.9922L26.3164 28.2031H23.3516L29.7266 11H32.8438L39.207 28.2031H36.2188ZM33.8164 21.0312L32.1875 16.3438C32.125 16.1406 32.0352 15.8555 31.918 15.4883C31.8008 15.1133 31.6836 14.7344 31.5664 14.3516C31.4492 13.9609 31.3516 13.6328 31.2734 13.3672C31.1953 13.6875 31.0977 14.0469 30.9805 14.4453C30.8711 14.8359 30.7617 15.2031 30.6523 15.5469C30.5508 15.8906 30.4727 16.1562 30.418 16.3438L28.7773 21.0312H33.8164Z" fill="white"/>
<path d="M47.4102 28.2031H44.5859V13.4609H39.5703V11.0703H52.4141V13.4609H47.4102V28.2031Z" fill="white"/>
<path d="M65.6562 28.2031L63.9805 23.4453H57.4297L55.7539 28.2031H52.7891L59.1641 11H62.2812L68.6445 28.2031H65.6562ZM63.2539 21.0312L61.625 16.3438C61.5625 16.1406 61.4727 15.8555 61.3555 15.4883C61.2383 15.1133 61.1211 14.7344 61.0039 14.3516C60.8867 13.9609 60.7891 13.6328 60.7109 13.3672C60.6328 13.6875 60.5352 14.0469 60.418 14.4453C60.3086 14.8359 60.1992 15.2031 60.0898 15.5469C59.9883 15.8906 59.9102 16.1562 59.8555 16.3438L58.2148 21.0312H63.2539Z" fill="white"/>
<path d="M192.488 5H77V34.6133H192.488V5Z" fill="white"/>
<path d="M90.8398 28.3789H88.0156V13.6367H83V11.2461H95.8438V13.6367H90.8398V28.3789Z" fill="#990CC0"/>
<path d="M103.285 11.2461C104.762 11.2461 105.98 11.4258 106.941 11.7852C107.91 12.1445 108.629 12.6914 109.098 13.4258C109.574 14.1602 109.812 15.0938 109.812 16.2266C109.812 17.0703 109.656 17.7891 109.344 18.3828C109.031 18.9766 108.621 19.4688 108.113 19.8594C107.605 20.25 107.062 20.5625 106.484 20.7969L111.348 28.3789H108.172L104.035 21.5117H101.281V28.3789H98.4688V11.2461H103.285ZM103.098 13.5898H101.281V19.1914H103.227C104.531 19.1914 105.477 18.9492 106.062 18.4648C106.656 17.9805 106.953 17.2656 106.953 16.3203C106.953 15.3281 106.637 14.625 106.004 14.2109C105.379 13.7969 104.41 13.5898 103.098 13.5898Z" fill="#990CC0"/>
<path d="M124.414 28.3789L122.738 23.6211H116.188L114.512 28.3789H111.547L117.922 11.1758H121.039L127.402 28.3789H124.414ZM122.012 21.207L120.383 16.5195C120.32 16.3164 120.23 16.0312 120.113 15.6641C119.996 15.2891 119.879 14.9102 119.762 14.5273C119.645 14.1367 119.547 13.8086 119.469 13.543C119.391 13.8633 119.293 14.2227 119.176 14.6211C119.066 15.0117 118.957 15.3789 118.848 15.7227C118.746 16.0664 118.668 16.332 118.613 16.5195L116.973 21.207H122.012Z" fill="#990CC0"/>
<path d="M136.965 13.3906C136.145 13.3906 135.41 13.5391 134.762 13.8359C134.121 14.1328 133.578 14.5625 133.133 15.125C132.688 15.6797 132.348 16.3555 132.113 17.1523C131.879 17.9414 131.762 18.832 131.762 19.8242C131.762 21.1523 131.949 22.2969 132.324 23.2578C132.699 24.2109 133.27 24.9453 134.035 25.4609C134.801 25.9688 135.77 26.2227 136.941 26.2227C137.668 26.2227 138.375 26.1523 139.062 26.0117C139.75 25.8711 140.461 25.6797 141.195 25.4375V27.8281C140.5 28.1016 139.797 28.3008 139.086 28.4258C138.375 28.5508 137.555 28.6133 136.625 28.6133C134.875 28.6133 133.422 28.25 132.266 27.5234C131.117 26.7969 130.258 25.7734 129.688 24.4531C129.125 23.1328 128.844 21.5859 128.844 19.8125C128.844 18.5156 129.023 17.3281 129.383 16.25C129.742 15.1719 130.266 14.2422 130.953 13.4609C131.641 12.6719 132.488 12.0664 133.496 11.6445C134.512 11.2148 135.672 11 136.977 11C137.836 11 138.68 11.0977 139.508 11.293C140.344 11.4805 141.117 11.75 141.828 12.1016L140.844 14.4219C140.25 14.1406 139.629 13.8984 138.98 13.6953C138.332 13.4922 137.66 13.3906 136.965 13.3906Z" fill="#990CC0"/>
<path d="M157.941 28.3789H154.707L149.375 20.5977L147.688 21.9688V28.3789H144.875V11.2461H147.688V19.4375C148.031 19.0156 148.379 18.5938 148.73 18.1719C149.082 17.75 149.434 17.3281 149.785 16.9062L154.613 11.2461H157.789L151.391 18.7461L157.941 28.3789Z" fill="#990CC0"/>
<path d="M169.906 28.3789H160.203V11.2461H169.906V13.6133H163.016V18.2656H169.473V20.6211H163.016V26H169.906V28.3789Z" fill="#990CC0"/>
<path d="M178.426 11.2461C179.902 11.2461 181.121 11.4258 182.082 11.7852C183.051 12.1445 183.77 12.6914 184.238 13.4258C184.715 14.1602 184.953 15.0938 184.953 16.2266C184.953 17.0703 184.797 17.7891 184.484 18.3828C184.172 18.9766 183.762 19.4688 183.254 19.8594C182.746 20.25 182.203 20.5625 181.625 20.7969L186.488 28.3789H183.312L179.176 21.5117H176.422V28.3789H173.609V11.2461H178.426ZM178.238 13.5898H176.422V19.1914H178.367C179.672 19.1914 180.617 18.9492 181.203 18.4648C181.797 17.9805 182.094 17.2656 182.094 16.3203C182.094 15.3281 181.777 14.625 181.145 14.2109C180.52 13.7969 179.551 13.5898 178.238 13.5898Z" fill="#990CC0"/>
</svg>
