<svg width="188" height="40" viewBox="0 0 188 40" fill="none" xmlns="http://www.w3.org/2000/svg">
<path d="M188 0H0V40H188V0Z" fill="#990CC0"/>
<path d="M177.488 5H62V34.6133H177.488V5Z" fill="white"/>
<path d="M68.7812 15.7891V13H81.9219V15.7891H77.0234V29H73.6797V15.7891H68.7812Z" fill="#990CC0"/>
<path d="M84.0859 29V13H90.3984C91.6068 13 92.638 13.2161 93.4922 13.6484C94.3516 14.0755 95.0052 14.6823 95.4531 15.4688C95.9063 16.25 96.1328 17.1693 96.1328 18.2266C96.1328 19.2891 95.9036 20.2031 95.4453 20.9688C94.987 21.7292 94.3229 22.3125 93.4531 22.7188C92.5885 23.125 91.5417 23.3281 90.3125 23.3281H87.4688V20.6094H89.7656C90.4115 20.6094 90.9479 20.5208 91.375 20.3438C91.8021 20.1667 92.1198 19.901 92.3281 19.5469C92.5417 19.1927 92.6484 18.7526 92.6484 18.2266C92.6484 17.6953 92.5417 17.2474 92.3281 16.8828C92.1198 16.5182 91.7995 16.2422 91.3672 16.0547C90.9401 15.862 90.401 15.7656 89.75 15.7656H87.4688V29H84.0859ZM93.194 22.8322L96.7031 29H92.9688L89.6611 23.3281H90.1562L90.6018 23.3243L91.0861 23.2995L91.5 23.2581L91.9481 23.1893L92.3832 23.0952L92.8063 22.9738L93.194 22.8322Z" fill="#990CC0"/>
<path d="M101.281 29H97.6562L103.18 13H107.539L113.055 29H109.43L105.422 16.6562H105.297L101.281 29ZM103.327 22.7109H107.388L108.245 25.3516H102.468L103.327 22.7109Z" fill="#990CC0"/>
<path d="M128.346 18.6016H124.924C124.861 18.1589 124.734 17.7656 124.541 17.4219C124.348 17.0729 124.101 16.776 123.799 16.5312C123.497 16.2865 123.148 16.099 122.752 15.9688C122.361 15.8385 121.937 15.7734 121.479 15.7734C120.65 15.7734 119.929 15.9792 119.314 16.3906C118.7 16.7969 118.223 17.3906 117.885 18.1719C117.546 18.9479 117.377 19.8906 117.377 21C117.377 22.1406 117.546 23.099 117.885 23.875C118.229 24.651 118.708 25.237 119.322 25.6328C119.937 26.0286 120.648 26.2266 121.455 26.2266C121.908 26.2266 122.327 26.1667 122.713 26.0469C123.104 25.9271 123.45 25.7526 123.752 25.5234C124.054 25.2891 124.304 25.0052 124.502 24.6719C124.705 24.3385 124.846 23.9583 124.924 23.5312L128.346 23.5469C128.257 24.2813 128.036 24.9896 127.682 25.6719C127.333 26.349 126.861 26.9557 126.268 27.4922C125.679 28.0234 124.976 28.4453 124.158 28.7578C123.346 29.0651 122.426 29.2188 121.4 29.2188C119.973 29.2188 118.697 28.8958 117.572 28.25C116.452 27.6042 115.567 26.6693 114.916 25.4453C114.27 24.2214 113.947 22.7396 113.947 21C113.947 19.2552 114.275 17.7708 114.932 16.5469C115.588 15.3229 116.479 14.3906 117.604 13.75C118.729 13.1042 119.994 12.7812 121.4 12.7812C122.327 12.7812 123.187 12.9115 123.979 13.1719C124.775 13.4323 125.481 13.8125 126.096 14.3125C126.71 14.8073 127.21 15.4141 127.596 16.1328C127.986 16.8516 128.236 17.6745 128.346 18.6016Z" fill="#990CC0"/>
<path d="M130.771 29V13H134.154V20.0547H134.365L140.123 13H144.178L138.24 20.1641L144.248 29H140.201L135.818 22.4219L134.154 24.4531V29H130.771Z" fill="#990CC0"/>
<path d="M145.939 29V13H156.721V15.7891H149.322V19.6016H156.166V22.3906H149.322V26.2109H156.752V29H145.939Z" fill="#990CC0"/>
<path d="M159.41 29V13H165.723C166.931 13 167.962 13.2161 168.816 13.6484C169.676 14.0755 170.329 14.6823 170.777 15.4688C171.23 16.25 171.457 17.1693 171.457 18.2266C171.457 19.2891 171.228 20.2031 170.77 20.9688C170.311 21.7292 169.647 22.3125 168.777 22.7188C167.913 23.125 166.866 23.3281 165.637 23.3281H162.793V20.6094H165.09C165.736 20.6094 166.272 20.5208 166.699 20.3438C167.126 20.1667 167.444 19.901 167.652 19.5469C167.866 19.1927 167.973 18.7526 167.973 18.2266C167.973 17.6953 167.866 17.2474 167.652 16.8828C167.444 16.5182 167.124 16.2422 166.691 16.0547C166.264 15.862 165.725 15.7656 165.074 15.7656H162.793V29H159.41ZM168.668 22.7684L172.027 29H168.293L165.172 23.3281L165.748 23.3276L166.157 23.3154L166.582 23.2847L167.034 23.2291L167.469 23.1504L167.892 23.0462L168.289 22.9196L168.668 22.7684Z" fill="#990CC0"/>
<path d="M17.0625 29H11.3906V13H17.1094C18.7188 13 20.1042 13.3203 21.2656 13.9609C22.4271 14.5964 23.3203 15.5104 23.9453 16.7031C24.5755 17.8958 24.8906 19.3229 24.8906 20.9844C24.8906 22.651 24.5755 24.0833 23.9453 25.2812C23.3203 26.4792 22.4219 27.3984 21.25 28.0391C20.0833 28.6797 18.6875 29 17.0625 29ZM14.7734 26.1016H16.9219C17.9219 26.1016 18.763 25.9245 19.4453 25.5703C20.1328 25.2109 20.6484 24.6562 20.9922 23.9062C21.3411 23.151 21.5156 22.1771 21.5156 20.9844C21.5156 19.8021 21.3411 18.8359 20.9922 18.0859C20.6484 17.3359 20.1354 16.7839 19.4531 16.4297C18.7708 16.0755 17.9297 15.8984 16.9297 15.8984H14.7734V26.1016Z" fill="white"/>
<path d="M36.0762 17.6016C36.0137 16.9714 35.7454 16.4818 35.2715 16.1328C34.7975 15.7839 34.1543 15.6094 33.3418 15.6094C32.7897 15.6094 32.3236 15.6875 31.9434 15.8438C31.5632 15.9948 31.2715 16.2057 31.0684 16.4766C30.8704 16.7474 30.7715 17.0547 30.7715 17.3984C30.7611 17.6849 30.821 17.9349 30.9512 18.1484C31.0866 18.362 31.2715 18.5469 31.5059 18.7031C31.7402 18.8542 32.0111 18.987 32.3184 19.1016C32.6257 19.2109 32.9538 19.3047 33.3027 19.3828L34.7402 19.7266C35.4382 19.8828 36.0788 20.0911 36.6621 20.3516C37.2454 20.612 37.7507 20.9323 38.1777 21.3125C38.6048 21.6927 38.9355 22.1406 39.1699 22.6562C39.4095 23.1719 39.5319 23.763 39.5371 24.4297C39.5319 25.4089 39.2819 26.2578 38.7871 26.9766C38.2975 27.6901 37.5892 28.2448 36.6621 28.6406C35.7402 29.0313 34.6283 29.2266 33.3262 29.2266C32.0345 29.2266 30.9095 29.0286 29.9512 28.6328C28.998 28.237 28.2533 27.651 27.7168 26.875C27.1855 26.0938 26.9069 25.1276 26.8809 23.9766H30.1543C30.1908 24.513 30.3444 24.9609 30.6152 25.3203C30.8913 25.6745 31.2585 25.9427 31.7168 26.125C32.1803 26.3021 32.7038 26.3906 33.2871 26.3906C33.86 26.3906 34.3574 26.3073 34.7793 26.1406C35.2064 25.974 35.5371 25.7422 35.7715 25.4453C36.0059 25.1484 36.123 24.8073 36.123 24.4219C36.123 24.0625 36.0163 23.7604 35.8027 23.5156C35.5944 23.2708 35.2871 23.0625 34.8809 22.8906C34.4798 22.7188 33.9876 22.5625 33.4043 22.4219L31.6621 21.9844C30.3132 21.6563 29.248 21.1432 28.4668 20.4453C27.6855 19.7474 27.2975 18.8073 27.3027 17.625C27.2975 16.6563 27.5553 15.8099 28.0762 15.0859C28.6022 14.362 29.3236 13.7969 30.2402 13.3906C31.1569 12.9844 32.1986 12.7812 33.3652 12.7812C34.5527 12.7812 35.5892 12.9844 36.4746 13.3906C37.3652 13.7969 38.0579 14.362 38.5527 15.0859C39.0475 15.8099 39.3027 16.6484 39.3184 17.6016H36.0762Z" fill="white"/>
<path d="M44.2051 29H40.5801L46.1035 13H50.4629L55.9785 29H52.3535L48.3457 16.6562H48.2207L44.2051 29ZM46.251 22.7109H50.3116L51.1689 25.3516H45.392L46.251 22.7109Z" fill="white"/>
</svg>
